<?xml version="1.0" encoding="UTF-8"?>
<svg width="24px" height="24px" viewBox="0 0 24 24" version="1.1" xmlns="http://www.w3.org/2000/svg">
    <path fill="#FF5B5B" d="M18.4,9.5c-0.3-2.2-2.2-3.9-4.4-4.1C13.5,4,12.7,3,11.6,2.4c-0.8-0.4-1.8-0.4-2.6,0C7.9,3,7.1,4,6.6,5.3
        C4.4,5.6,2.5,7.3,2.2,9.5c-0.4,2.8,1.2,5.5,3.8,6.4c0.9,0.3,1.9,0.4,2.8,0.2c1.1-0.2,2.3-0.2,3.4,0c0.9,0.2,1.9,0.1,2.8-0.2
        C17.6,15,19.2,12.3,18.4,9.5z"/>
    <path fill="#4CAF50" d="M12,2c0,0-1.1-2-3-2c0,0,0.3,2,1.5,3C11.7,4,12,2,12,2z"/>
</svg>
